<?xml version="1.0" standalone="no"?>
<!DOCTYPE svg PUBLIC "-//W3C//DTD SVG 20010904//EN"
 "http://www.w3.org/TR/2001/REC-SVG-20010904/DTD/svg10.dtd">
<svg version="1.0" xmlns="http://www.w3.org/2000/svg"
 width="512.000000pt" height="512.000000pt" viewBox="0 0 512.000000 512.000000"
 preserveAspectRatio="xMidYMid meet">
<metadata>
Created by potrace 1.11, written by Peter Selinger 2001-2013
</metadata>
<g transform="translate(0.000000,512.000000) scale(0.100000,-0.100000)"
fill="#000000" stroke="none">
<path d="M2225 5096 c-22 -7 -73 -29 -113 -49 -253 -127 -448 -357 -540 -638
-33 -98 -33 -100 -52 -226 -13 -80 -8 -265 9 -334 l8 -36 -82 38 c-46 22 -89
39 -97 39 -8 0 -18 4 -23 9 -6 6 -21 12 -35 15 -14 3 -54 13 -90 22 -47 13
-105 17 -215 17 -134 0 -160 -3 -239 -27 -219 -66 -417 -208 -545 -390 -69
-99 -59 -143 68 -301 44 -54 79 -100 78 -102 -2 -1 -65 -20 -141 -42 -200 -57
-221 -82 -211 -257 2 -55 7 -110 10 -124 3 -14 7 -36 10 -50 3 -14 7 -34 9
-46 7 -37 58 -178 79 -219 94 -188 245 -341 425 -430 94 -46 278 -100 335 -97
27 1 20 -13 -33 -70 -120 -128 -207 -276 -253 -433 -46 -154 -56 -379 -24
-527 44 -201 157 -422 239 -464 49 -25 103 -18 231 31 66 25 123 45 127 45 4
0 6 -26 4 -58 -7 -115 -5 -238 4 -262 34 -87 176 -130 431 -130 190 0 292 22
448 96 199 93 389 281 484 478 13 25 26 46 29 46 3 0 19 -26 35 -57 93 -186
270 -365 452 -457 159 -80 279 -106 486 -106 131 0 169 4 247 24 157 41 184
75 181 229 -1 56 -4 123 -5 150 -4 50 -1 53 36 37 98 -40 227 -81 258 -82 81
-1 135 55 219 227 78 160 111 317 106 499 -2 67 -6 132 -9 146 -4 14 -8 37
-11 51 -3 14 -14 57 -26 95 -51 166 -135 305 -266 440 -23 24 -39 45 -35 46 4
0 12 2 17 3 6 1 30 5 55 9 77 13 212 57 282 91 203 101 364 277 452 497 53
131 72 213 82 366 7 105 0 143 -33 182 -31 37 -57 49 -206 90 l-116 32 26 37
c15 20 32 41 37 46 18 17 102 129 114 152 7 12 12 41 12 65 0 56 -45 125 -154
234 -127 127 -263 209 -432 260 -78 23 -107 27 -234 27 -184 1 -327 -31 -483
-110 -27 -13 -51 -22 -53 -20 -3 2 1 38 7 78 11 72 7 275 -6 349 -27 143 -94
306 -182 438 -176 268 -538 485 -665 398 -15 -10 -64 -72 -109 -138 l-81 -120
-69 104 c-82 124 -97 141 -135 160 -37 19 -79 20 -129 4z"/>
</g>
</svg>
